<?xml version="1.0" encoding="utf-8"?>
<!-- Generator: Adobe Illustrator 19.0.0, SVG Export Plug-In . SVG Version: 6.00 Build 0)  -->
<svg version="1.1" id="Layer_1" xmlns="http://www.w3.org/2000/svg" xmlns:xlink="http://www.w3.org/1999/xlink" x="0px" y="0px"
	 viewBox="0 0 100 100" style="enable-background:new 0 0 100 100;" xml:space="preserve">
<style type="text/css">
	.st0{fill:#1D1D1B;}
</style>
<g id="XMLID_334_" transform="translate(0,-952.36218)">
	<path id="XMLID_335_" class="st0" d="M71.1,1036.4c0.9-0.1,1.6-0.8,1.5-1.7c0,0,0,0,0-0.1l-2.6-22.3l15.2-16.5
		c0.6-0.7,0.6-1.7-0.1-2.3c-0.2-0.2-0.5-0.3-0.8-0.4l-21.9-4.4l-11-19.5c-0.4-0.8-1.4-1.1-2.2-0.6c-0.3,0.1-0.5,0.4-0.6,0.6
		l-11,19.5l-21.9,4.4c-0.9,0.2-1.4,1-1.3,1.9c0.1,0.3,0.2,0.6,0.4,0.8l15.2,16.5l-2.6,22.3c-0.1,0.9,0.5,1.7,1.4,1.8
		c0.3,0,0.6,0,0.9-0.1l20.3-9.3l20.3,9.3C70.6,1036.3,70.9,1036.4,71.1,1036.4z"/>
</g>
</svg>
